<?xml version="1.0" encoding="UTF-8"?>
<svg id="Layer_1" data-name="Layer 1" xmlns="http://www.w3.org/2000/svg" viewBox="0 0 100 100">
  <defs>
    <style>
      .cls-1 {
        fill: #221f1f;
      }

      .cls-2 {
        fill: #b9b9ba;
      }

      .cls-3 {
        fill: #d33257;
      }
    </style>
  </defs>
  <g>
    <polygon class="cls-2" points="13.8 38.58 2.82 72.98 9.31 70.46 20.21 55.59 31.93 66.9 43.66 59.15 52.88 72.98 55.6 72.98 46.17 40.93 49.24 51.36 45.47 48.68 41.7 49.58 37.17 58.31 29.21 38.57 23.56 35.48 20.62 41.98 18.53 35.07 13.8 38.58"/>
    <polygon class="cls-3" points="20.62 41.98 23.56 35.48 29.21 38.57 20.62 17.26 13.8 38.58 18.53 35.07 20.62 41.98"/>
    <polygon class="cls-3" points="49.24 51.36 46.17 40.93 41.7 49.58 45.47 48.68 49.24 51.36"/>
    <path class="cls-1" d="M42.44,20.77c3.34,0,6.48.63,9.42,1.91,2.88,1.22,5.49,3,7.69,5.21,2.19,2.22,3.95,4.82,5.18,7.69,1.27,2.92,1.91,6.05,1.91,9.39s-.63,6.48-1.91,9.42c-1.22,2.88-2.98,5.5-5.18,7.72-2.2,2.22-4.81,3.98-7.69,5.21-2.94,1.27-6.09,1.9-9.42,1.91h-14.03V20.77h14.03ZM42.44,55.05c1.39,0,2.76-.26,4.05-.77,5.2-2.12,7.69-8.05,5.58-13.24-.52-1.28-1.29-2.43-2.27-3.39-.96-.92-2.08-1.66-3.31-2.17-1.28-.54-2.66-.81-4.05-.8v20.38Z"/>
    <path class="cls-1" d="M68.34,66.56h28.89v5.28h-28.89v-5.28Z"/>
    <path class="cls-3" d="M83,20.95c1.79-.07,3.59,0,5.36.23,1.85.24,3.66.67,5.41,1.29-.05.42-.09.84-.1,1.28v1.25c0,.55-.02,1.41-.05,2.54s-.11,2.86-.26,5.16c-1.22-.48-2.48-.9-3.76-1.22-1.28-.34-2.59-.62-3.91-.81-.65-.07-1.31-.05-1.95.05-.61.09-1.17.33-1.65.7-.37.37-.43.77-.18,1.17,0,0,0,0,0,.01.33.54.86.93,1.46,1.13l5.27,1.71c1.19.36,2.32.89,3.35,1.57.99.66,1.88,1.45,2.65,2.37.74.89,1.33,1.89,1.75,2.97.43,1.1.64,2.28.63,3.46.04,1.79-.25,3.41-.84,4.85-.57,1.4-1.41,2.68-2.46,3.76-1.09,1.09-2.37,1.98-3.79,2.59-1.52.68-3.15,1.11-4.8,1.29-.24.04-.59.06-1.06.08s-.98.03-1.52.03c-.98.04-1.97.02-2.95-.05-.87-.05-1.74-.18-2.59-.35-.91-.2-1.86-.46-2.82-.77s-2.21-.75-3.74-1.32l2.44-10.95c.51.17,1.02.35,1.52.54.51.18,1.02.38,1.52.58l2.39.86c.78.31,1.55.59,2.31.86.79.27,1.63.41,2.46.4.48-.02.95-.15,1.37-.38.37-.22.59-.62.66-1.2,0-.39-.12-.77-.35-1.09-.24-.33-.55-.6-.89-.81-.36-.22-.75-.41-1.14-.56-.4-.15-.8-.28-1.17-.38-1.56-.35-3.03-.98-4.37-1.86-1.28-.83-2.44-1.84-3.43-3-.95-1.11-1.71-2.35-2.29-3.68-.55-1.25-.83-2.6-.84-3.97,0-1.06.15-2.13.46-3.15.31-1.02.8-1.98,1.44-2.82.69-.9,1.54-1.67,2.49-2.29.99-.66,2.19-1.16,3.58-1.49,1.42-.39,2.9-.59,4.38-.61Z"/>
  </g>
  <g>
    <path class="cls-1" d="M2.77,79.02c0-.4,0-.98.01-1.74,0-.76.01-1.34.01-1.74.89-.14,1.67-.2,2.34-.2.42,0,.8.04,1.13.11.33.07.63.2.91.37.28.18.51.4.69.68.18.28.32.63.43,1.05s.15.91.15,1.47c0,.33-.02.64-.05.92-.03.28-.08.53-.13.76-.06.22-.13.43-.22.61s-.19.34-.3.47c-.11.14-.24.25-.38.36s-.29.19-.45.25-.33.12-.52.16c-.19.04-.39.07-.58.09-.2.02-.41.03-.65.03-.08,0-.17,0-.26,0-.09,0-.17,0-.24,0-.07,0-.17,0-.29-.02s-.21-.01-.26-.02c-.05,0-.15-.01-.3-.02-.15-.01-.24-.02-.28-.02-.04,0-.14-.01-.32-.03-.17-.02-.27-.02-.3-.03-.03,0-.06-.01-.08-.04s-.04-.05-.04-.08c0-.37,0-.92-.01-1.66,0-.73-.01-1.3-.01-1.71ZM5.15,79.02c0,.48,0,1.01.02,1.59h.2c.06,0,.11,0,.15-.02.04-.01.09-.04.13-.07.05-.04.08-.09.11-.16s.06-.17.08-.28.04-.26.05-.44c.01-.18.02-.38.02-.61,0-.28,0-.52-.03-.71-.02-.2-.04-.35-.07-.46-.03-.11-.07-.2-.12-.26-.05-.06-.1-.1-.15-.12-.05-.02-.11-.03-.18-.03h-.2c-.02.67-.02,1.2-.02,1.59Z"/>
    <path class="cls-1" d="M9.07,79.02c0-1.12.02-2.32.05-3.61.38-.02.73-.03,1.05-.03s.74,0,1.23.03c.03,0,.06.01.08.04s.04.05.04.08c.03,1.51.05,2.67.05,3.49,0,1.12-.02,2.32-.05,3.61-.38.02-.73.03-1.05.03s-.74,0-1.23-.03c-.03,0-.06-.01-.08-.04s-.04-.05-.04-.08c-.03-1.51-.05-2.67-.05-3.49Z"/>
    <path class="cls-1" d="M12.19,79.01c0-.56.05-1.05.15-1.47.1-.42.24-.77.43-1.05.18-.28.41-.51.69-.68.28-.18.58-.3.91-.37.33-.07.71-.11,1.13-.11.59,0,1.3.07,2.15.2l-.25,1.9h-2.14c-.07,0-.13,0-.18.03-.05.02-.1.06-.15.12-.05.06-.09.15-.12.26-.03.11-.05.27-.07.46-.02.2-.03.43-.03.71,0,.23,0,.44.02.61.01.18.04.32.06.44.03.11.06.21.09.28.03.07.08.13.13.17.05.04.1.06.14.07.05.01.1.02.16.02h.24c0-.39-.02-1-.05-1.83.35-.02.67-.02.95-.02.3,0,.65,0,1.05.02.03,0,.06.01.08.04s.04.05.04.08c.03.74.05,1.3.05,1.68,0,.66-.02,1.27-.05,1.84-.34.06-.59.1-.76.13-.16.03-.37.05-.61.07-.24.02-.5.03-.78.03-.23,0-.45,0-.65-.03-.2-.02-.39-.05-.58-.09s-.37-.09-.52-.16-.31-.15-.45-.25c-.14-.1-.27-.22-.38-.36-.11-.14-.21-.29-.3-.47s-.16-.38-.22-.61c-.06-.22-.1-.48-.13-.76-.03-.28-.05-.58-.05-.92Z"/>
    <path class="cls-1" d="M18.47,79.02c0-1.12.02-2.32.05-3.61.38-.02.73-.03,1.05-.03s.74,0,1.23.03c.03,0,.06.01.08.04s.04.05.04.08c.03,1.51.05,2.67.05,3.49,0,1.12-.02,2.32-.05,3.61-.38.02-.73.03-1.05.03s-.74,0-1.23-.03c-.03,0-.06-.01-.08-.04s-.04-.05-.04-.08c-.03-1.51-.05-2.67-.05-3.49Z"/>
    <path class="cls-1" d="M21.46,76.32c0-.32,0-.63.01-.91.38-.02,1.31-.03,2.78-.03,1.16,0,1.99,0,2.48.03.03,0,.06.01.08.04s.04.05.04.08c0,.45.01.79.01,1.02,0,.33,0,.63-.01.9-.13,0-.62.01-1.45.02,0,.43.01.95.01,1.54,0,1.12-.02,2.32-.05,3.61-.38.02-.73.03-1.05.03s-.74,0-1.23-.03c-.03,0-.06-.01-.08-.04s-.04-.05-.04-.08c-.03-1.51-.05-2.67-.05-3.49,0-.37,0-.89.01-1.55-.46,0-.91-.02-1.33-.03-.03,0-.06-.01-.08-.04s-.04-.05-.04-.08c0-.46-.01-.79-.01-.99Z"/>
    <path class="cls-1" d="M26.67,82.52s.02-.16.06-.38c.11-.66.23-1.34.36-2.05.14-.71.31-1.58.53-2.63.22-1.05.36-1.73.42-2.06.4-.02.95-.03,1.65-.03.65,0,1.22,0,1.71.03.03,0,.06.01.09.03.03.02.05.05.05.09.09.45.24,1.18.45,2.19.21,1.01.39,1.91.54,2.69.15.78.28,1.52.38,2.21-.38.02-.73.03-1.05.03-.51,0-.9,0-1.18-.03-.03,0-.06-.01-.09-.04-.03-.02-.04-.05-.05-.08-.09-.46-.16-.86-.22-1.2h-1.12c-.06.43-.14.87-.23,1.32-.38.02-.72.03-.99.03-.33,0-.74,0-1.23-.03-.03,0-.05,0-.07-.03s-.03-.04-.03-.07ZM29.42,79.74h.68c-.05-.33-.11-.8-.2-1.41-.08-.61-.14-1.04-.18-1.29-.04.33-.09.79-.16,1.41-.07.61-.11,1.04-.14,1.29Z"/>
    <path class="cls-1" d="M33.35,79.02c0-1.12.02-2.32.05-3.61.38-.02.73-.03,1.05-.03s.74,0,1.23.03c.03,0,.06.01.08.04s.04.05.04.08c.03,1.51.05,2.67.05,3.49,0,.53,0,1.05,0,1.56h.05c.73,0,1.34,0,1.83.03.03,0,.06.01.08.04s.04.05.04.08c0,.49.01.84.01,1.04,0,.31,0,.61-.01.88-.38.02-.97.03-1.77.03-.2,0-.62,0-1.27-.02-.65-.01-1.08-.02-1.29-.03-.03,0-.06-.01-.08-.04s-.04-.05-.04-.08c-.03-1.51-.05-2.67-.05-3.49Z"/>
    <path class="cls-1" d="M41.75,82.55l.29-2.17c.89.28,1.6.42,2.13.42.21,0,.37-.04.48-.13.11-.09.16-.18.16-.29,0-.04,0-.08-.02-.11-.02-.03-.04-.06-.09-.09-.04-.03-.08-.05-.12-.08-.04-.02-.09-.04-.17-.07-.08-.02-.14-.05-.19-.06-.05-.01-.12-.04-.22-.06-.18-.05-.32-.09-.42-.12-.1-.03-.24-.08-.42-.16-.18-.07-.33-.15-.43-.22-.11-.08-.23-.18-.37-.31-.14-.13-.25-.27-.32-.42s-.14-.33-.2-.55-.08-.45-.08-.71c0-.27.02-.52.08-.73.05-.21.12-.39.2-.54.08-.15.19-.27.34-.37.14-.1.28-.18.43-.24.14-.06.32-.1.54-.13s.42-.05.6-.06c.19,0,.41-.01.68-.01.66,0,1.43.09,2.32.26l-.27,2c-.31-.14-.66-.25-1.05-.35-.39-.09-.77-.14-1.12-.14-.19,0-.33.03-.44.09-.11.06-.16.14-.16.25,0,.03,0,.07.03.1.02.03.05.06.09.09.04.03.09.05.13.07.04.02.1.05.18.07.08.03.15.05.2.07.05.02.13.04.24.07.49.15.86.28,1.12.4.66.31,1.08.75,1.26,1.29.07.22.11.46.11.72s-.03.51-.08.73c-.05.22-.13.41-.22.57-.09.16-.21.3-.35.43-.14.12-.29.22-.45.3s-.35.14-.55.19c-.2.05-.41.08-.62.1-.21.02-.43.03-.67.03-.84,0-1.69-.04-2.54-.13Z"/>
    <path class="cls-1" d="M47.58,79.06c0-1.15.02-2.37.05-3.65.38-.02.73-.03,1.05-.03s.74,0,1.23.03c.03,0,.06.01.08.04s.04.05.04.08c.03,1.51.05,2.81.05,3.9,0,.26,0,.48.03.64.02.16.05.29.09.37.04.09.09.14.15.17.05.03.13.04.21.04.12,0,.21-.03.27-.08s.11-.17.14-.35c.03-.18.05-.45.05-.8,0-1.39.02-2.73.05-4.01.38-.02.73-.03,1.05-.03s.74,0,1.23.03c.03,0,.06.01.08.04s.04.05.04.08c.03,1.51.05,2.68.05,3.53,0,.52-.04.97-.12,1.37-.08.4-.19.74-.34,1.02-.15.28-.33.52-.55.7s-.47.33-.74.42c-.27.09-.59.15-.93.17-.28,0-.54-.01-.76-.03-.23-.02-.45-.06-.66-.12-.21-.05-.4-.13-.56-.22-.16-.09-.31-.2-.46-.34-.14-.14-.26-.3-.36-.48-.1-.19-.18-.4-.25-.64-.07-.24-.12-.52-.16-.83-.03-.31-.05-.65-.05-1.03Z"/>
    <path class="cls-1" d="M54.15,79.02c0-1.12.02-2.32.05-3.61.38-.02.71-.03.99-.03.34,0,.68,0,1.04.03.06,0,.1.04.13.12l1.51,3.08,1.51-3.08c.06-.07.11-.11.15-.12.25-.02.53-.03.84-.03.34,0,.71,0,1.11.03.03,0,.06.01.09.04.02.02.03.05.03.08.03,1.51.05,2.67.05,3.49,0,1.12-.02,2.32-.05,3.61-.34.02-.66.03-.93.03-.25,0-.62,0-1.11-.03-.03,0-.06-.01-.08-.04s-.04-.05-.04-.08c0-.22-.02-.56-.03-1.01-.01-.45-.02-.85-.03-1.22,0-.37-.01-.72-.02-1.05l-1.37,2.8-.13.02-.12-.02-1.3-2.66.04,3.26c-.38.02-.71.03-.99.03s-.68,0-1.17-.03c-.03,0-.06-.01-.08-.04s-.04-.05-.04-.08c-.03-1.51-.05-2.67-.05-3.49Z"/>
    <path class="cls-1" d="M62.52,79.02c0-1.12.02-2.32.05-3.61.38-.02.71-.03.99-.03.34,0,.68,0,1.04.03.06,0,.1.04.13.12l1.51,3.08,1.51-3.08c.06-.07.11-.11.15-.12.25-.02.53-.03.84-.03.34,0,.71,0,1.11.03.03,0,.06.01.09.04.02.02.03.05.03.08.03,1.51.05,2.67.05,3.49,0,1.12-.02,2.32-.05,3.61-.34.02-.66.03-.93.03-.25,0-.62,0-1.11-.03-.03,0-.06-.01-.08-.04s-.04-.05-.04-.08c0-.22-.02-.56-.03-1.01-.01-.45-.02-.85-.03-1.22,0-.37-.01-.72-.02-1.05l-1.37,2.8-.13.02-.12-.02-1.3-2.66.04,3.26c-.38.02-.71.03-.99.03s-.68,0-1.17-.03c-.03,0-.06-.01-.08-.04s-.04-.05-.04-.08c-.03-1.51-.05-2.67-.05-3.49Z"/>
    <path class="cls-1" d="M70.89,79.02c0-1.12.02-2.32.05-3.61.38-.02.73-.03,1.05-.03s.74,0,1.23.03c.03,0,.06.01.08.04s.04.05.04.08c.03,1.51.05,2.67.05,3.49,0,1.12-.02,2.32-.05,3.61-.38.02-.73.03-1.05.03s-.74,0-1.23-.03c-.03,0-.06-.01-.08-.04s-.04-.05-.04-.08c-.03-1.51-.05-2.67-.05-3.49Z"/>
    <path class="cls-1" d="M73.88,76.32c0-.32,0-.63.01-.91.38-.02,1.31-.03,2.78-.03,1.16,0,1.99,0,2.48.03.03,0,.06.01.08.04s.04.05.04.08c0,.45.01.79.01,1.02,0,.33,0,.63-.01.9-.13,0-.62.01-1.45.02,0,.43.01.95.01,1.54,0,1.12-.02,2.32-.05,3.61-.38.02-.73.03-1.05.03s-.74,0-1.23-.03c-.03,0-.06-.01-.08-.04s-.04-.05-.04-.08c-.03-1.51-.05-2.67-.05-3.49,0-.37,0-.89.01-1.55-.46,0-.91-.02-1.33-.03-.03,0-.06-.01-.08-.04s-.04-.05-.04-.08c0-.46-.01-.79-.01-.99Z"/>
    <path class="cls-1" d="M83.2,76.65c0-.12,0-.32,0-.59,0-.27,0-.47,0-.61,0-.03,0-.06.03-.09.02-.02.05-.03.08-.03.09,0,.38,0,.84,0s.75,0,.85,0c.03,0,.06.01.08.04s.04.05.04.08c0,.14,0,.33,0,.59,0,.25,0,.44,0,.57-.03.24-.11.6-.23,1.08-.13.48-.22.8-.28.96-.11,0-.27,0-.5,0-.24,0-.47,0-.67,0-.02-.12-.06-.41-.12-.87-.06-.47-.1-.84-.13-1.11Z"/>
    <path class="cls-1" d="M85.82,80.64c0-.23.03-.45.08-.65.05-.2.11-.38.18-.53.07-.15.17-.29.3-.44.13-.14.24-.26.34-.34.1-.09.23-.18.4-.28.17-.1.3-.17.39-.22.09-.05.22-.11.38-.18.09-.04.16-.08.2-.1.04-.02.1-.05.17-.09.07-.04.12-.07.16-.09.03-.03.07-.05.11-.09.04-.03.06-.06.08-.1.01-.03.02-.07.02-.1,0-.11-.06-.19-.19-.25-.13-.06-.29-.09-.5-.09-.17,0-.34.02-.51.05-.17.03-.33.08-.49.14s-.28.11-.37.15-.2.09-.32.16l-.27-2c.73-.18,1.34-.26,1.84-.26.27,0,.5,0,.69.01.19,0,.39.03.61.06.22.03.4.08.55.13.15.06.29.14.44.24.15.1.26.23.35.37.09.15.15.33.21.54.05.21.08.46.08.73,0,.15-.01.29-.04.43-.02.14-.05.26-.09.37s-.09.22-.15.32c-.06.1-.13.19-.19.27-.06.08-.14.16-.23.24-.09.08-.17.15-.24.2-.07.05-.16.11-.26.17-.1.06-.19.11-.26.15s-.15.08-.25.14c-.3.16-.49.27-.58.33-.15.11-.23.23-.23.35v.2h.13c.97,0,1.7,0,2.19.03.03,0,.06.01.08.04s.04.05.04.08c0,.48.01.83.01,1.03,0,.32,0,.62-.01.89-.38.02-1.09.03-2.13.03-.2,0-.62,0-1.27-.02-.65-.01-1.08-.02-1.29-.03-.03,0-.06-.01-.08-.03-.02-.02-.04-.05-.04-.09-.03-.71-.05-1.33-.05-1.87Z"/>
    <path class="cls-1" d="M91.4,82.51l.22-1.84h1.76c.22,0,.37-.04.47-.12.1-.08.14-.2.14-.36,0-.14-.05-.26-.14-.35-.1-.09-.22-.13-.38-.13h-1.89s-.07,0-.09-.01c-.02,0-.03-.03-.03-.06-.02-.22-.02-.46-.02-.7,0-1.07.02-2.25.05-3.53.38-.02,1.15-.03,2.3-.03.97,0,1.7,0,2.19.03.03,0,.06.01.08.04s.04.05.04.08c0,.49.01.84.01,1.04,0,.31,0,.61-.01.88-.37.02-1.19.03-2.45.03v.62c.1,0,.2,0,.29,0,.34,0,.65.04.92.12s.51.2.7.34c.19.14.35.31.48.51.13.2.22.41.28.64.06.23.09.46.09.71,0,.27-.03.51-.08.73-.05.22-.12.4-.21.56-.09.16-.21.29-.35.41-.14.12-.29.21-.45.28-.16.07-.34.13-.55.17-.21.04-.41.07-.61.09-.2.02-.43.02-.67.02-.4,0-.75-.01-1.04-.04-.3-.02-.64-.07-1.04-.13Z"/>
  </g>
</svg>